<svg width="86" height="56" viewBox="0 0 86 56" fill="none" xmlns="http://www.w3.org/2000/svg">
<rect width="86" height="56" rx="6" fill="#D1AFA2" fill-opacity="0.31"/>
<path d="M17.9595 38V15.4545H32.8871V19.3846H22.7262V24.7567H31.8963V28.6868H22.7262V38H17.9595ZM43.9291 30.8004V21.0909H48.6187V38H44.1162V34.9286H43.9401C43.5584 35.9194 42.9236 36.7157 42.0356 37.3175C41.1549 37.9193 40.0797 38.2202 38.8101 38.2202C37.6799 38.2202 36.6855 37.9633 35.8268 37.4496C34.9681 36.9358 34.2966 36.2056 33.8122 35.2589C33.3352 34.3121 33.093 33.1783 33.0857 31.8572V21.0909H37.7753V31.0206C37.7826 32.0187 38.0505 32.8076 38.5789 33.3874C39.1073 33.9672 39.8155 34.2571 40.7036 34.2571C41.2687 34.2571 41.7971 34.1287 42.2888 33.8718C42.7805 33.6076 43.1768 33.2186 43.4777 32.7049C43.786 32.1912 43.9364 31.5563 43.9291 30.8004ZM55.1995 28.2244V38H50.5098V21.0909H54.9793V24.0742H55.1775C55.5517 23.0908 56.1792 22.3129 57.0599 21.7404C57.9406 21.1606 59.0084 20.8707 60.2634 20.8707C61.4376 20.8707 62.4614 21.1276 63.3348 21.6413C64.2081 22.1551 64.887 22.889 65.3714 23.843C65.8557 24.7898 66.0979 25.92 66.0979 27.2337V38H61.4083V28.0703C61.4156 27.0355 61.1514 26.2282 60.6157 25.6484C60.0799 25.0613 59.3424 24.7678 58.403 24.7678C57.7718 24.7678 57.214 24.9035 56.7297 25.1751C56.2526 25.4466 55.8783 25.8429 55.6068 26.364C55.3426 26.8777 55.2068 27.4979 55.1995 28.2244Z" fill="#D1AFA2"/>
</svg>
