<svg width="86" height="56" viewBox="0 0 86 56" fill="none" xmlns="http://www.w3.org/2000/svg">
<rect width="86" height="56" rx="6" fill="#8A9C7E" fill-opacity="0.31"/>
<path d="M17.1009 19.3846V15.4545H35.6172V19.3846H28.7148V38H24.0032V19.3846H17.1009ZM37.6762 44.3409C37.0818 44.3409 36.524 44.2932 36.0029 44.1978C35.4892 44.1097 35.0635 43.996 34.7259 43.8565L35.7828 40.3558C36.3332 40.5246 36.8286 40.6164 37.2689 40.631C37.7166 40.6457 38.1019 40.543 38.4248 40.3228C38.7551 40.1026 39.0229 39.7283 39.2284 39.1999L39.5036 38.4844L33.4379 21.0909H38.3698L41.8705 33.5085H42.0466L45.5803 21.0909H50.5452L43.9731 39.8274C43.6575 40.7375 43.2282 41.5301 42.6851 42.2053C42.1494 42.8878 41.4705 43.4125 40.6485 43.7795C39.8266 44.1538 38.8358 44.3409 37.6762 44.3409ZM51.085 44.3409V21.0909H55.7086V23.9311H55.9178C56.1233 23.4761 56.4205 23.0137 56.8095 22.544C57.2058 22.067 57.7195 21.6707 58.3507 21.3551C58.9892 21.0322 59.7818 20.8707 60.7285 20.8707C61.9615 20.8707 63.099 21.1937 64.1411 21.8395C65.1833 22.478 66.0163 23.4431 66.6401 24.7347C67.2639 26.0191 67.5758 27.63 67.5758 29.5675C67.5758 31.4536 67.2712 33.0462 66.6621 34.3452C66.0603 35.6368 65.2383 36.6166 64.1962 37.2844C63.1614 37.945 62.0018 38.2752 60.7175 38.2752C59.8075 38.2752 59.0332 38.1248 58.3947 37.8239C57.7635 37.523 57.2461 37.145 56.8425 36.69C56.4389 36.2276 56.1306 35.7616 55.9178 35.2919H55.7747V44.3409H51.085ZM55.6756 29.5455C55.6756 30.5509 55.815 31.4279 56.0939 32.1765C56.3728 32.9251 56.7764 33.5085 57.3049 33.9268C57.8333 34.3378 58.4754 34.5433 59.2313 34.5433C59.9946 34.5433 60.6404 34.3342 61.1688 33.9158C61.6973 33.4902 62.0972 32.9031 62.3688 32.1545C62.6477 31.3986 62.7871 30.5289 62.7871 29.5455C62.7871 28.5694 62.6513 27.7107 62.3798 26.9695C62.1082 26.2282 61.7083 25.6484 61.1799 25.2301C60.6514 24.8118 60.0019 24.6026 59.2313 24.6026C58.4681 24.6026 57.8223 24.8045 57.2938 25.2081C56.7728 25.6117 56.3728 26.1842 56.0939 26.9254C55.815 27.6667 55.6756 28.54 55.6756 29.5455Z" fill="#8A9C7E"/>
</svg>
